# xmcd CD database file
#
# Track frame offsets:
#	150
#	20317
#	34950
#	53767
#	77630
#	95712
#	115755
#	135455
#	158427
#	173435
#	196542
#	212832
#	235605
#
# Disc length: 3507 seconds
#
# Revision: 6
# Processed by: cddbd v1.5PL3 Copyright (c) Steve Scherf et al.
# Submitted via: CDex 1.51
#
DISCID=930db10d
DTITLE=Shemekia Copeland - Wicked
DYEAR=2000
DGENRE=R&B
TTITLE0=It's 2am
TTITLE1=Not Tonight
TTITLE2=Love Scene
TTITLE3=The Other Woman
TTITLE4=Whole Lotta Water
TTITLE5=Beat Up Guitar
TTITLE6=Miss Hy Ciditty
TTITLE7=Up On 1-2-5
TTITLE8=Wild, Wild Woman
TTITLE9=The Fool You're Looking For
TTITLE10=If He Moves His Lips
TTITLE11=Steamy Windows
TTITLE12=It's My Own Tears
EXTD=YEAR: 2000
EXTT0=
EXTT1=
EXTT2=
EXTT3=
EXTT4=
EXTT5=
EXTT6=
EXTT7=
EXTT8=
EXTT9=
EXTT10=
EXTT11=
EXTT12=
PLAYORDER=
